Coordinates
version=1
nRows=6
nColumns=63
inDegrees=yes

Units are S.I. units (second, meters, Newtons, ...)
If the header above contains a line with 'inDegrees', this indicates whether rotational values are in degrees (yes) or radians (no).

endheader
time	pelvis_tilt	pelvis_list	pelvis_rotation	pelvis_tx	pelvis_ty	pelvis_tz	hip_flexion_r	hip_adduction_r	hip_rotation_r	knee_angle_r	knee_angle_r_beta	ankle_angle_r	subtalar_angle_r	mtp_angle_r	hip_flexion_l	hip_adduction_l	hip_rotation_l	knee_angle_l	knee_angle_l_beta	ankle_angle_l	subtalar_angle_l	mtp_angle_l	L5_S1_Flex_Ext	L5_S1_Lat_Bending	L5_S1_axial_rotation	L4_L5_Flex_Ext	L4_L5_Lat_Bending	L4_L5_axial_rotation	L3_L4_Flex_Ext	L3_L4_Lat_Bending	L3_L4_axial_rotation	L2_L3_Flex_Ext	L2_L3_Lat_Bending	L2_L3_axial_rotation	L1_L2_Flex_Ext	L1_L2_Lat_Bending	L1_L2_axial_rotation	L1_T12_Flex_Ext	L1_T12_Lat_Bending	L1_T12_axial_rotation	Abs_r3	Abs_r2	Abs_r1	Abs_t1	Abs_t2	neck_flexion	neck_bending	neck_rotation	arm_flex_r	arm_add_r	arm_rot_r	elbow_flex_r	pro_sup_r	wrist_flex_r	wrist_dev_r	arm_flex_l	arm_add_l	arm_rot_l	elbow_flex_l	pro_sup_l	wrist_flex_l	wrist_dev_l
1.653061	-6.339374	1.815703	102.367840	0.281229	0.700638	0.881739	-5.620100	0.928644	-8.956143	0.259305	0.004526	10.722958	-14.905381	0.000000	-2.435649	0.682576	7.935278	3.452358	0.060255	24.040489	6.064010	0.000000	-0.036338	0.077632	0.167319	-0.067483	0.103251	0.177776	-0.059700	0.188755	0.177776	-0.041531	0.188755	0.146404	-0.033744	0.158308	0.135946	-0.020764	0.120253	0.125489	-0.259559	0.878193	0.930575	0.000000	0.000000	2.026925	7.798035	-0.036428	38.523283	0.210468	32.530856	149.586476	89.463413	-13.145338	7.443419	38.864006	-2.068613	33.828505	145.778137	89.139837	-20.578346	-4.526208
1.673469	-6.278466	1.855749	102.607938	0.280693	0.700538	0.881530	-5.731763	1.031427	-9.470871	0.261001	0.004555	10.651058	-14.722211	0.000000	-2.460528	0.605907	8.219673	3.522589	0.061481	24.053650	5.868182	0.000000	-0.049421	0.097897	0.067794	-0.091780	0.130203	0.072031	-0.081194	0.238026	0.072031	-0.056483	0.238026	0.059320	-0.045892	0.199631	0.055083	-0.028239	0.151642	0.050846	-0.353010	1.107429	0.377050	0.000000	0.000000	2.244143	7.409991	0.531583	38.986354	0.498094	32.795020	149.568242	89.475809	-11.999135	8.854648	38.712999	-2.269343	33.719993	146.151024	89.147719	-20.921849	-4.678168
1.693878	-6.237511	1.901091	102.877042	0.280175	0.700449	0.881265	-5.860606	1.121799	-10.094669	0.263006	0.004590	10.712441	-14.353970	0.000000	-2.502496	0.542036	8.489074	3.558907	0.062115	24.125811	5.759010	0.000000	-0.061569	0.115869	-0.035645	-0.114340	0.154106	-0.037873	-0.101152	0.281724	-0.037873	-0.070368	0.281724	-0.031189	-0.057173	0.236280	-0.028961	-0.035181	0.179481	-0.026734	-0.439783	1.310736	-0.198246	0.000000	0.000000	2.400085	7.047953	1.222559	39.451369	0.800121	33.062724	149.563538	89.489850	-10.510259	10.268899	38.518321	-2.463741	33.526707	146.473091	89.158821	-21.094181	-4.798706
1.714286	-6.213748	1.936005	103.151160	0.279695	0.700346	0.880942	-5.985692	1.195458	-10.693925	0.264663	0.004619	10.865565	-13.945751	0.000000	-2.539862	0.494345	8.686196	3.568717	0.062286	24.271360	5.770782	0.000000	-0.070744	0.131562	-0.135641	-0.131379	0.174978	-0.144118	-0.116226	0.319880	-0.144118	-0.080854	0.319880	-0.118686	-0.065693	0.268282	-0.110208	-0.040423	0.203790	-0.101731	-0.505320	1.488258	-0.754394	0.000000	0.000000	2.511401	6.714434	2.019262	39.922633	1.070191	33.419136	149.571802	89.506291	-9.047080	11.565638	38.285324	-2.647034	33.260298	146.774414	89.172874	-21.097568	-4.799184
1.734694	-6.211996	1.957246	103.430441	0.279280	0.700232	0.880583	-6.101643	1.248165	-11.144652	0.264809	0.004622	11.036902	-13.697021	0.000000	-2.559334	0.467412	8.804161	3.573009	0.062361	24.478870	5.917189	0.000000	-0.077224	0.142957	-0.227053	-0.143413	0.190133	-0.241244	-0.126871	0.347586	-0.241244	-0.088259	0.347586	-0.198672	-0.071710	0.291518	-0.184481	-0.044126	0.221440	-0.170290	-0.551603	1.617158	-1.262802	0.000000	0.000000	2.597580	6.436241	2.816207	40.366118	1.278373	33.873744	149.576918	89.523386	-7.878891	12.595160	38.050312	-2.817923	33.013369	147.042497	89.185220	-21.085945	-4.820340
1.755102	-6.220169	1.961167	103.722662	0.278863	0.700102	0.880172	-6.202378	1.288345	-11.567973	0.264091	0.004609	11.241408	-13.452909	0.000000	-2.566600	0.451291	8.842025	3.551536	0.061986	24.730815	6.217724	0.000000	-0.079196	0.150900	-0.308263	-0.147075	0.200697	-0.327529	-0.130111	0.366898	-0.327529	-0.090513	0.366898	-0.269730	-0.073542	0.307715	-0.250463	-0.045253	0.233744	-0.231197	-0.565691	1.707011	-1.714465	0.000000	0.000000	2.654288	6.203539	3.503147	40.722394	1.409679	34.285485	149.594188	89.538708	-6.912197	13.511900	37.786520	-2.952097	32.761820	147.297827	89.194382	-20.871871	-4.784839
